Input #0, mov,mp4,m4a,3gp,3g2,mj2, from '/home/hbattu/projects/huberman-gpt/huberman-audio/mp3/tmp2ai_6uho.mp4':
  Metadata:
    major_brand     : dash
    minor_version   : 0
    compatible_brands: iso6mp41
    creation_time   : 2023-05-12T05:17:46.000000Z
  Duration: 03:31:27.59, start: 0.000000, bitrate: 129 kb/s
    Stream #0:0(eng): Audio: aac (LC) (mp4a / 0x6134706D), 44100 Hz, stereo, fltp, 0 kb/s (default)
    Metadata:
      creation_time   : 2023-05-12T05:17:46.000000Z
      handler_name    : ISO Media file produced by Google Inc.
Stream mapping:
  Stream #0:0 -> #0:0 (aac (native) -> mp3 (libmp3lame))
Press [q] to stop, [?] for help
[graph_0_in_0_0 @ 0x559d119db900] tb:1/44100 samplefmt:fltp samplerate:44100 chlayout:0x3
Output #0, mp3, to '../huberman-audio/mp3/IAnhFUUCq6c.mp3':
  Metadata:
    major_brand     : dash
    minor_version   : 0
    compatible_brands: iso6mp41
    TSSE            : Lavf58.29.100
    Stream #0:0(eng): Audio: mp3 (libmp3lame), 44100 Hz, stereo, fltp, delay 1105 (default)
    Metadata:
      creation_time   : 2023-05-12T05:17:46.000000Z
      handler_name    : ISO Media file produced by Google Inc.
      encoder         : Lavc58.54.100 libmp3lame
No more output streams to write to, finishing.
size=  198244kB time=03:31:27.59 bitrate= 128.0kbits/s speed=94.4x    
[AVIOContext @ 0x559d11993900] Statistics: 0 seeks, 269 writeouts
video:0kB audio:198244kB subtitle:0kB other streams:0kB global headers:0kB muxing overhead: 0.000170%
Input file #0 (/home/hbattu/projects/huberman-gpt/huberman-audio/mp3/tmp2ai_6uho.mp4):
  Input stream #0:0 (audio): 546409 packets read (203001475 bytes); 546409 frames decoded (559522816 samples); 
  Total: 546409 packets (203001475 bytes) demuxed
Output file #0 (../huberman-audio/mp3/IAnhFUUCq6c.mp3):
  Output stream #0:0 (audio): 485697 frames encoded (559522816 samples); 485698 packets muxed (203001939 bytes); 
  Total: 485698 packets (203001939 bytes) muxed
[AVIOContext @ 0x559d119cc900] Statistics: 2 seeks, 776 writeouts
[AVIOContext @ 0x559d1199c880] Statistics: 205335211 bytes read, 0 seeks
